<mxfile host="app.diagrams.net" modified="2021-05-08T11:33:21.613Z" agent="5.0 (Windows NT 10.0; Win64; x64) AppleWebKit/537.36 (KHTML, like Gecko) Chrome/90.0.4430.93 Safari/537.36" etag="UAC-yzwu45epJhkbX0bB" version="14.6.6" type="github">
  <diagram name="7.5.1 管理课程系统顺序图" id="e7e014a7-5840-1c2e-5031-d8a46d1fe8dd">
    <mxGraphModel dx="1037" dy="588" grid="1" gridSize="10" guides="1" tooltips="1" connect="1" arrows="1" fold="1" page="1" pageScale="1" pageWidth="1169" pageHeight="826" background="#ffffff" math="0" shadow="0">
      <root>
        <mxCell id="0" />
        <mxCell id="1" parent="0" />
        <mxCell id="4sCztwYDgMuLWeKya2kD-41" value="sd管理课程系统顺序图" style="shape=umlFrame;whiteSpace=wrap;html=1;width=160;height=40;align=center;" vertex="1" parent="1">
          <mxGeometry x="120" y="40" width="920" height="1360" as="geometry" />
        </mxCell>
      </root>
    </mxGraphModel>
  </diagram>
</mxfile>
